
<!DOCTYPE svg  PUBLIC '-//W3C//DTD SVG 1.1//EN'  'http://www.w3.org/Graphics/SVG/1.1/DTD/svg11.dtd'>
<svg enable-background="new 0 0 365.449 365.449" version="1.1" viewBox="0 0 365.45 365.45" xml:space="preserve" xmlns="http://www.w3.org/2000/svg" class='icon'>
<g transform="translate(0 -1)">
	<path d="m281.51 10.85c-7.228-7.236-15.797-10.85-25.694-10.85h-146.18c-9.9 0-18.464 3.617-25.697 10.85-7.233 7.229-10.85 15.796-10.85 25.693v292.36c0 9.896 3.617 18.462 10.85 25.693 7.233 7.234 15.797 10.852 25.697 10.852h146.18c9.896 0 18.466-3.621 25.693-10.852 7.234-7.231 10.852-15.797 10.852-25.693v-292.36c0-9.897-3.613-18.46-10.851-25.693zm-121.62 25.693h45.685c3.046 0 4.565 1.523 4.565 4.569 0 3.045-1.52 4.57-4.565 4.57h-45.685c-3.045 0-4.568-1.525-4.568-4.57-1e-3 -3.046 1.522-4.569 4.568-4.569zm38.976 308.49c-4.476 4.469-9.852 6.707-16.135 6.707-6.28 0-11.656-2.238-16.13-6.707-4.474-4.477-6.711-9.856-6.711-16.132 0-6.283 2.24-11.66 6.711-16.133 4.471-4.469 9.851-6.714 16.13-6.714 6.284 0 11.66 2.245 16.135 6.714 4.473 4.473 6.708 9.85 6.708 16.133s-2.238 11.656-6.708 16.132zm66.093-61.811c0 2.471-0.903 4.62-2.714 6.424-1.813 1.807-3.949 2.707-6.42 2.707h-146.18c-2.474 0-4.615-0.903-6.423-2.707s-2.712-3.953-2.712-6.424v-201c0-2.474 0.903-4.617 2.712-6.423 1.809-1.805 3.949-2.714 6.423-2.714h146.18c2.478 0 4.616 0.905 6.427 2.714 1.811 1.807 2.71 3.949 2.71 6.423v201h4e-3z"/>
















</svg>
