
<svg enable-background="new 0 0 32 32" version="1.1" viewBox="0 0 32 32" xml:space="preserve" xmlns="http://www.w3.org/2000/svg" class='icon'>
<g transform="translate(0 -1)">
<ellipse class="st0" cx="14" cy="8" rx="10" ry="5"/>
<path class="st0" d="m30.8 21.2c-1.1 0.2-2 0-2.4-0.7s-0.1-1.7 0.6-2.5c-0.9-0.9-1.9-1.5-3.1-1.8-0.3 1-1 1.8-1.8 1.8s-1.5-0.7-1.8-1.8c-1.2 0.3-2.3 0.9-3.1 1.8 0.7 0.8 1 1.8 0.6 2.5s-1.4 0.9-2.4 0.7c-0.3 0.6-0.4 1.2-0.4 1.8s0.1 1.2 0.2 1.8c1.1-0.2 2 0 2.4 0.7s0.1 1.7-0.6 2.5c0.9 0.9 1.9 1.5 3.1 1.8 0.3-1 1-1.8 1.8-1.8s1.5 0.7 1.8 1.8c1.2-0.3 2.3-0.9 3.1-1.8-0.7-0.8-1-1.8-0.6-2.5s1.4-0.9 2.4-0.7c0.2-0.6 0.2-1.2 0.2-1.8s0.1-1.2 0-1.8z"/>

	<path d="m24 24c-0.1 0-0.3 0-0.4-0.1s-0.2-0.1-0.3-0.2-0.2-0.2-0.2-0.3-0.1-0.3-0.1-0.4 0-0.3 0.1-0.4 0.1-0.2 0.2-0.3c0.4-0.4 1-0.4 1.4 0 0.1 0.1 0.2 0.2 0.2 0.3s0.1 0.3 0.1 0.4 0 0.3-0.1 0.4-0.1 0.2-0.2 0.3c-0.2 0.2-0.4 0.3-0.7 0.3z"/>

<path class="st0" d="M23.3,17.8c0.4-0.6,0.7-1.2,0.7-1.8V8"/>
<path class="st0" d="m4 8v8c0 2.8 4.5 5 10 5 2.1 0 4-0.3 5.6-0.9"/>
<path class="st0" d="m4 16v8c0 2.8 4.5 5 10 5 2 0 3.8-0.3 5.3-0.8"/>
</svg>
