
<svg viewBox="0 0 64 64" xmlns="http://www.w3.org/2000/svg" class='icon'>
<g transform="translate(0 -1)">
<path d="m54.76 14.64h-9.39c-0.5375-0.0055-1.0587-0.1847-1.4859-0.511-0.4272-0.3262-0.7373-0.7819-0.8841-1.299l-0.6-2.19c-0.26-0.9414-0.8212-1.7717-1.5977-2.3641-0.7765-0.59232-1.7257-0.91403-2.7023-0.91593h-12.19c-0.9788 0.00364-1.9296 0.32703-2.7077 0.92095-0.778 0.59392-1.3407 1.4258-1.6023 2.369l-0.6 2.18c-0.0999 0.3497-0.2753 0.6733-0.5137 0.948s-0.5341 0.4939-0.8663 0.642v-2.13c0-0.2652-0.1054-0.5196-0.2929-0.7071s-0.4419-0.2929-0.7071-0.2929h-9.38c-0.26522 0-0.51957 0.1054-0.70711 0.2929-0.18753 0.1875-0.29289 0.4419-0.29289 0.7071v2.44c-1.4609 0.2372-2.7899 0.9859-3.7497 2.1124-0.95985 1.1266-1.488 2.5576-1.4903 4.0376v29.52c0.00264 1.6541 0.66092 3.2398 1.8306 4.4094 1.1697 1.1697 2.7553 1.828 4.4094 1.8306h45.52c1.6541-0.0026 3.2398-0.6609 4.4094-1.8306 1.1697-1.1696 1.828-2.7553 1.8306-4.4094v-29.52c-0.0026-1.6541-0.6609-3.2398-1.8306-4.4094-1.1696-1.1697-2.7553-1.828-4.4094-1.8306zm-37.13-1.35v1.35h-7.39v-1.35h7.39zm41.37 37.11c0 1.1245-0.4467 2.203-1.2419 2.9981-0.7951 0.7952-1.8736 1.2419-2.9981 1.2419h-45.52c-1.1245 0-2.203-0.4467-2.9981-1.2419-0.79516-0.7951-1.2419-1.8736-1.2419-2.9981v-29.52c0-1.1245 0.44671-2.203 1.2419-2.9981 0.79515-0.7952 1.8736-1.2419 2.9981-1.2419h9.39c0.9788-0.0036 1.9296-0.327 2.7077-0.921 0.778-0.5939 1.3407-1.4258 1.6023-2.369l0.59-2.18c0.1472-0.5187 0.4589-0.9756 0.8881-1.302 0.4292-0.3264 0.9527-0.50466 1.4919-0.50799h12.18c0.5392 0.00333 1.0627 0.18159 1.4919 0.50799 0.4292 0.32641 0.7409 0.78331 0.8881 1.302l0.6 2.18c0.26 0.9414 0.8212 1.7717 1.5977 2.3641 0.7765 0.5923 1.7257 0.914 2.7023 0.9159h9.39c0.5576 0 1.1098 0.11 1.6249 0.3237s0.9829 0.5269 1.3768 0.9217c0.3938 0.3948 0.7059 0.8634 0.9184 1.379 0.2125 0.5155 0.3212 1.068 0.3199 1.6256v29.52z"/>
<path d="m32 18.48c-3.394 0-6.7117 1.0064-9.5336 2.892-2.822 1.8855-5.0214 4.5656-6.3202 7.7011-1.2988 3.1356-1.6386 6.5859-0.9765 9.9146 0.6621 3.3288 2.2965 6.3864 4.6963 8.7862 2.3999 2.3999 5.4575 4.0342 8.7862 4.6964 3.3287 0.6621 6.779 0.3223 9.9146-0.9765s5.8156-3.4983 7.7012-6.3202c1.8856-2.822 2.892-6.1397 2.892-9.5336-0.0027-4.5503-1.8114-8.9135-5.029-12.131-3.2175-3.2176-7.5807-5.0264-12.131-5.029zm0 32.31c-2.9988 0-5.9302-0.8894-8.4235-2.5556-2.4933-1.6663-4.4364-4.0345-5.5835-6.8052s-1.4468-5.8194-0.861-8.7605c0.5858-2.941 2.0306-5.6422 4.1518-7.762 2.1211-2.1197 4.8233-3.5628 7.7647-4.1466s5.9899-0.2822 8.7599 0.8668c2.7699 1.1489 5.1369 3.0936 6.8015 5.5879 1.6646 2.4944 2.5521 5.4264 2.5501 8.4252-0.0027 4.0189-1.6011 7.8724-4.4438 10.713-2.8428 2.8409-6.6973 4.4367-10.716 4.4367z"/>
<path d="m32.75 29.32c-0.2025 0.192-0.471 0.2991-0.75 0.2991-0.2791 0-0.5475-0.1071-0.75-0.2991-0.5907-0.5914-1.2922-1.0606-2.0643-1.3807-0.7722-0.3201-1.5998-0.4849-2.4357-0.4849s-1.6636 0.1648-2.4357 0.4849c-0.7722 0.3201-1.4736 0.7893-2.0643 1.3807-1.1872 1.1968-1.8533 2.8143-1.8533 4.5s0.6661 3.3032 1.8533 4.5l9.05 9.05c0.0929 0.0937 0.2035 0.1681 0.3254 0.2189s0.2526 0.0769 0.3846 0.0769 0.2627-0.0261 0.3846-0.0769c0.1218-0.0508 0.2324-0.1252 0.3254-0.2189l9-9.05c1.109-1.2101 1.7081-2.8016 1.6724-4.4426-0.0358-1.641-0.7036-3.2049-1.8642-4.3656-1.1607-1.1606-2.7246-1.8285-4.3656-1.8642s-3.2325 0.5634-4.4426 1.6724h0.03zm7.6 7.6-8.35 8.34-8.35-8.34c-0.7713-0.8307-1.1905-1.928-1.1695-3.0614 0.021-1.1333 0.4806-2.2144 1.2821-3.0159 0.8016-0.8016 1.8826-1.2612 3.016-1.2822 1.1333-0.021 2.2307 0.3982 3.0614 1.1695 0.5735 0.5716 1.3503 0.8925 2.16 0.8925s1.5864-0.3209 2.16-0.8925c0.8307-0.7713 1.928-1.1905 3.0614-1.1695 1.1333 0.021 2.2144 0.4806 3.0159 1.2822 0.8016 0.8015 1.2611 1.8826 1.2821 3.0159 0.0211 1.1334-0.3981 2.2307-1.1694 3.0614z"/>
</svg>
