
<svg enable-background="new 0 0 512 512" version="1.1" viewBox="0 0 512 512" xml:space="preserve" xmlns="http://www.w3.org/2000/svg" class='icon'>
<g transform="translate(0 -1)">
	
		<path d="m499.33 438.04-120.23-120.23c21.419-33.014 32.916-71.526 32.916-111.81 0-55.026-21.429-106.76-60.338-145.67-38.91-38.91-90.644-60.339-145.67-60.339s-106.76 21.429-145.67 60.339c-38.909 38.909-60.338 90.643-60.338 145.67s21.429 106.76 60.338 145.67 90.643 60.338 145.67 60.338c40.283 0 78.794-11.497 111.81-32.916l120.23 120.23c8.448 8.447 19.545 12.671 30.642 12.671s22.194-4.224 30.642-12.672c16.895-16.896 16.895-44.387-1e-3 -61.284zm-293.32-46.028c-49.685 0-96.395-19.349-131.53-54.481-35.132-35.131-54.481-81.841-54.481-131.53s19.349-96.396 54.481-131.53c35.131-35.132 81.841-54.481 131.53-54.481s96.395 19.349 131.53 54.481c35.132 35.131 54.481 81.841 54.481 131.53s-19.349 96.395-54.481 131.53c-35.131 35.133-81.841 54.482-131.53 54.482zm128.24-24.768c6.049-4.83 11.873-10.015 17.428-15.57s10.739-11.378 15.57-17.428l22.194 22.194-32.997 32.997-22.195-22.193zm150.94 117.94c-9.097 9.098-23.9 9.098-32.997 0l-81.6-81.6 32.997-32.997 81.6 81.6c9.098 9.097 9.098 23.9 0 32.997z"/>
	


	
		<path d="m347.28 139.73c-2.345-5-8.298-7.152-13.3-4.806-5 2.345-7.152 8.3-4.806 13.301 24.248 51.69 13.4 113.56-26.993 153.95-35.585 35.587-87.636 48.597-135.84 33.951-5.285-1.607-10.87 1.377-12.475 6.661-1.606 5.284 1.376 10.87 6.661 12.475 15.011 4.561 30.345 6.783 45.541 6.783 40.765 0 80.519-15.994 110.25-45.728 46.327-46.329 58.769-117.3 30.955-176.59z"/>
	


	
		<path d="m105.84 298.17-0.181-0.181c-3.905-3.905-10.237-3.905-14.144 0-3.906 3.905-3.905 10.237 0 14.144l0.232 0.23c1.951 1.937 4.499 2.904 7.046 2.904 2.571 0 5.142-0.985 7.096-2.954 3.892-3.92 3.87-10.252-0.049-14.143z"/>
	


	
		<path d="m247.18 55.51c-53.943-14.709-111.99 0.691-151.48 40.187-23.757 23.757-38.953 53.825-43.944 86.953-4.891 32.461 0.359 65.01 15.182 94.126 1.766 3.469 5.277 5.465 8.92 5.465 1.526 0 3.075-0.351 4.528-1.09 4.922-2.506 6.88-8.527 4.375-13.449-26.793-52.628-16.713-116.07 25.081-157.86 34.433-34.435 85.042-47.857 132.08-35.033 5.326 1.451 10.825-1.689 12.278-7.018 1.454-5.328-1.688-10.827-7.017-12.279z"/>
	


	
		<path d="m327.1 106.48-0.206-0.207c-3.905-3.905-10.237-3.905-14.144 0-3.906 3.905-3.905 10.237 0 14.144l0.207 0.207c1.953 1.953 4.512 2.929 7.071 2.929s5.119-0.976 7.071-2.929c3.906-3.905 3.906-10.237 1e-3 -14.144z"/>
	


	
		<path d="m291.08 113.8c-3.831-3.834-8.924-5.947-14.345-5.95l-81.191-0.045c-4e-3 -1e-3 -7e-3 -1e-3 -0.011-1e-3 -5.419 0-10.514 2.11-14.348 5.942l-84.913 84.913c-7.911 7.911-7.911 20.784 0 28.695l81.142 81.142c3.956 3.956 9.151 5.933 14.348 5.933 5.196 0 10.392-1.978 14.348-5.933l84.918-84.918c3.829-3.83 5.939-8.921 5.942-14.337l0.045-81.091c4e-3 -5.419-2.105-10.516-5.935-14.35zm-14.11 95.431c0 0.077-0.03 0.15-0.085 0.204l-84.918 84.918c-0.112 0.113-0.297 0.113-0.409 0l-81.141-81.142c-0.113-0.113-0.113-0.296 0-0.409l84.913-84.913c0.054-0.054 0.128-0.085 0.204-0.085l81.191 0.045c0.046 1e-3 0.121 1e-3 0.205 0.085 0.085 0.085 0.085 0.16 0.085 0.205l-0.045 81.092z"/>
	


	
		<path d="m244.6 156.09c-1.87-1.86-4.44-2.92-7.07-2.92-2.64 0-5.21 1.06-7.08 2.92-1.86 1.87-2.92 4.44-2.92 7.08 0 2.63 1.06 5.21 2.92 7.07 1.87 1.86 4.44 2.93 7.08 2.93 2.63 0 5.2-1.07 7.07-2.93 1.86-1.86 2.93-4.44 2.93-7.07 0-2.639-1.07-5.21-2.93-7.08z"/>
	
















</svg>
